<svg xmlns="http://www.w3.org/2000/svg" xmlns:xlink="http://www.w3.org/1999/xlink" width="74px" height="94px" viewBox="0 0 84 104">
  <g id="Landingspagina" stroke="#19C3F3" stroke-width="5" fill="none" fill-rule="evenodd" opacity="0.498939732">
    <g id="Style-Guide-Desktop" transform="translate(-564.000000, -741.000000)" fill="#FFFFFF">
      <g id="Logo" transform="translate(140.000000, 641.000000)">
        <g id="Light-Den-Blue" transform="translate(390.000000, 72.000000)">
          <g id="Logo-Copy" transform="translate(34.000000, 28.000000)">
            <path d="M59.920291,12.2145103 L75.2300049,7.84089112 L77.7756932,18.138943 L59.920291,12.2145103 Z M76.0249542,26.2050092 L76.0199724,26.1704212 C76.0199724,26.1704212 72.0950435,32.2310883 70.4318415,33.6075501 L76.0249542,31.4348581 L76.0249542,48.574984 L60.8710988,58.4925677 L67.5231951,58.4925677 L67.5231951,63.264302 L60.7714632,73.4868249 L44.0718334,71.5301316 L44.0718334,66.0059315 L51.6683324,59.8485591 L50.0698935,58.1636287 L42.5723184,60.2290272 L35.0768783,58.1636287 L33.4770161,59.8485591 L41.0735151,66.0059315 L41.0735151,71.5301316 L24.3696152,73.4776485 L17.6242885,63.264302 L17.6242885,58.4925677 L24.2763848,58.4925677 L9.12110597,48.574984 L9.12110597,31.435564 L14.7092369,33.6075501 C13.0460349,32.2310883 9.12110597,26.1704212 9.12110597,26.1704212 L30.1904663,17.3547127 L42.5723184,22.0622121 L54.9555939,17.3547127 L76.0249542,26.1704212 L76.0249542,26.2050092 Z M52.6888851,82.8877061 C51.3003926,84.9912221 49.3176451,86.6528585 46.9676695,87.5888526 C45.612626,88.129555 44.0426545,88.5523758 42.4456389,88.5523758 C41.4855792,88.5523758 40.5732023,88.4217884 39.7291468,88.2149662 C36.7571607,87.4829709 34.221436,85.5594538 32.5411536,83.0161759 L28.3400918,76.653393 L42.3915511,78.0058549 L42.7530858,78.0058549 L56.8109501,76.6470401 L52.6888851,82.8877061 Z M8.44287255,7.84089112 L23.7518748,12.2145103 L5.89718426,18.138943 L8.44287255,7.84089112 Z M33.9737705,12.1912163 L34.0356869,12.1912163 L42.5723184,8.94629582 L51.1096617,12.1912163 L51.171578,12.1912163 L51.140264,12.2032162 L51.171578,12.2152161 L51.1096617,12.2152161 L42.5723184,15.4608425 L34.0356869,12.2152161 L33.9737705,12.2152161 L34.0043728,12.2032162 L33.9737705,12.1912163 Z M79.1798427,0 L54.4097334,7.35807067 L53.9827239,7.35807067 L41.8613476,2.7529236 L29.7421063,7.35807067 L29.3421408,7.35807067 L4.57274313,0 C4.57274313,0 2.32453812,6.62325183 0.980881561,16.7568342 C-0.924292486,31.1207425 -1.00969439,52.5398999 9.70397394,72.1640099 C16.0123276,83.7178185 26.0627078,94.6490428 41.6919672,103.149224 L41.6919672,103.292517 C41.7353798,103.268517 41.7766574,103.243811 41.8207817,103.221929 C41.8641943,103.243811 41.9061836,103.268517 41.9488845,103.292517 L41.9488845,103.149224 C48.8991758,99.3699538 54.7435125,95.104334 59.6498516,90.5175397 C71.009016,79.8961958 77.3237748,67.5419217 80.5939559,55.4361167 C88.2673165,27.0294745 79.1798427,0 79.1798427,0 Z M20.9383092,35.4160798 C20.9383092,42.8736792 32.0348627,43.0663839 32.0348627,43.0663839 L31.3352788,53.4921997 L37.0315855,36.4671319 C31.9330921,33.7847961 20.9383092,35.4160798 20.9383092,35.4160798 M54.0252825,53.492482 L53.3249869,43.0659603 C53.3249869,43.0659603 64.4201171,42.8739616 64.4201171,35.4163621 C64.4201171,35.4163621 53.4253342,33.7850784 48.3268408,36.4674142 L54.0252825,53.492482 Z" id="Fill-5"></path>
          </g>
        </g>
      </g>
    </g>
  </g>
</svg>
